<?xml version="1.0" encoding="UTF-8" standalone="no"?>
<!DOCTYPE svg PUBLIC "-//W3C//DTD SVG 1.1//EN" "http://www.w3.org/Graphics/SVG/1.1/DTD/svg11.dtd">
<svg version="1.1" xmlns="http://www.w3.org/2000/svg" xmlns:xlink="http://www.w3.org/1999/xlink" preserveAspectRatio="xMidYMid meet" viewBox="0 0 480 480" width="480" height="480"><defs><path d="M240 240L142.5 105L60 255" id="b36qSaYWKC"></path><path d="M420 225L337.5 375L240 240" id="c14wswmwja"></path><path d="M187.5 112.5C187.5 137.34 167.34 157.5 142.5 157.5C117.66 157.5 97.5 137.34 97.5 112.5C97.5 87.66 117.66 67.5 142.5 67.5C167.34 67.5 187.5 87.66 187.5 112.5Z" id="bzDQL5FWl"></path><clipPath id="clipa6dFQIWS07"><use xlink:href="#bzDQL5FWl" opacity="1"></use></clipPath><path d="M112.5 255C112.5 279.84 92.34 300 67.5 300C42.66 300 22.5 279.84 22.5 255C22.5 230.16 42.66 210 67.5 210C92.34 210 112.5 230.16 112.5 255Z" id="c1Vl0tul04"></path><clipPath id="clipc306VVTbt6"><use xlink:href="#c1Vl0tul04" opacity="1"></use></clipPath><path d="M285 240C285 264.84 264.84 285 240 285C215.16 285 195 264.84 195 240C195 215.16 215.16 195 240 195C264.84 195 285 215.16 285 240Z" id="cdiMNha9J"></path><clipPath id="clipf1Sfk4Pa4q"><use xlink:href="#cdiMNha9J" opacity="1"></use></clipPath><path d="M382.5 382.5C382.5 407.34 362.34 427.5 337.5 427.5C312.66 427.5 292.5 407.34 292.5 382.5C292.5 357.66 312.66 337.5 337.5 337.5C362.34 337.5 382.5 357.66 382.5 382.5Z" id="b23sxZZmMj"></path><clipPath id="clipbaAZQtCts"><use xlink:href="#b23sxZZmMj" opacity="1"></use></clipPath><path d="M457.5 225C457.5 249.84 437.34 270 412.5 270C387.66 270 367.5 249.84 367.5 225C367.5 200.16 387.66 180 412.5 180C437.34 180 457.5 200.16 457.5 225Z" id="f2YHrkI4P"></path><clipPath id="clipb34BMwJo7z"><use xlink:href="#f2YHrkI4P" opacity="1"></use></clipPath></defs><g><g><g><use xlink:href="#b36qSaYWKC" opacity="1" fill="#ffeb3b" fill-opacity="0"></use><g><use xlink:href="#b36qSaYWKC" opacity="1" fill-opacity="0" stroke="#00c853" stroke-width="16" stroke-opacity="1"></use></g></g><g><g><use xlink:href="#c14wswmwja" opacity="1" fill-opacity="0" stroke="#00e676" stroke-width="16" stroke-opacity="1"></use></g></g><g><use xlink:href="#bzDQL5FWl" opacity="1" fill="#00c853" fill-opacity="1"></use><g clip-path="url(#clipa6dFQIWS07)"><use xlink:href="#bzDQL5FWl" opacity="1" fill-opacity="0" stroke="#00c853" stroke-width="16" stroke-opacity="1"></use></g></g><g><use xlink:href="#c1Vl0tul04" opacity="1" fill="#00c853" fill-opacity="1"></use><g clip-path="url(#clipc306VVTbt6)"><use xlink:href="#c1Vl0tul04" opacity="1" fill-opacity="0" stroke="#00c853" stroke-width="16" stroke-opacity="1"></use></g></g><g><use xlink:href="#cdiMNha9J" opacity="1" fill="#00e676" fill-opacity="1"></use><g clip-path="url(#clipf1Sfk4Pa4q)"><use xlink:href="#cdiMNha9J" opacity="1" fill-opacity="0" stroke="#00c853" stroke-width="32" stroke-opacity="1"></use></g></g><g><use xlink:href="#b23sxZZmMj" opacity="1" fill="#00e676" fill-opacity="1"></use><g clip-path="url(#clipbaAZQtCts)"><use xlink:href="#b23sxZZmMj" opacity="1" fill-opacity="0" stroke="#00e676" stroke-width="16" stroke-opacity="1"></use></g></g><g><use xlink:href="#f2YHrkI4P" opacity="1" fill="#00e676" fill-opacity="1"></use><g clip-path="url(#clipb34BMwJo7z)"><use xlink:href="#f2YHrkI4P" opacity="1" fill-opacity="0" stroke="#00e676" stroke-width="16" stroke-opacity="1"></use></g></g></g></g></svg>